Coordinates
version=1
nRows=6
nColumns=36
inDegrees=yes

Units are S.I. units (second, meters, Newtons, ...)
If the header above contains a line with 'inDegrees', this indicates whether rotational values are in degrees (yes) or radians (no).

endheader
time	pelvis_tilt	pelvis_list	pelvis_rotation	pelvis_tx	pelvis_ty	pelvis_tz	hip_flexion_r	hip_adduction_r	hip_rotation_r	knee_angle_r	knee_angle_r_beta	ankle_angle_r	subtalar_angle_r	mtp_angle_r	hip_flexion_l	hip_adduction_l	hip_rotation_l	knee_angle_l	knee_angle_l_beta	ankle_angle_l	subtalar_angle_l	mtp_angle_l	lumbar_extension	lumbar_bending	lumbar_rotation	arm_flex_r	arm_add_r	arm_rot_r	elbow_flex_r	pro_sup_r	arm_flex_l	arm_add_l	arm_rot_l	elbow_flex_l	pro_sup_l
      2.96666670	    -36.80567390	      5.23934913	    -11.11201988	      0.77525413	      0.55383848	     -0.20438099	    111.66984271	     -8.96694638	      3.91521825	    110.33061335	      1.92563247	     35.05890965	      1.14509381	     -7.49999987	    112.90397305	     -8.73896944	     12.11325621	    111.29528350	      1.94246914	     28.70872707	      3.64248310	     -7.49999987	    -34.91172706	      2.52453891	      4.87041846	     96.16992815	    -14.87114996	     12.78426825	    114.33026673	    102.13295843	    101.32127637	     -9.46336067	     26.10094026	    105.28745849	     93.04242688
      2.98333330	    -37.12227268	      5.40446121	    -11.28102496	      0.78556876	      0.55951306	     -0.19483327	    109.07618441	     -8.46472080	      3.73131223	    108.89065952	      1.90050053	     36.26094453	     -0.28568310	     -7.49999987	    110.32229367	     -8.43538165	     11.90203505	    110.36312701	      1.92619994	     30.27744189	      2.40337448	     -7.49999987	    -33.15888623	      2.85467804	      3.72833109	     90.70132195	    -13.52741353	     12.94566985	    108.25953273	    100.34612871	     95.61265767	    -13.95383183	     24.32163109	    106.15084952	     91.93236815
      3.00000000	    -37.42036229	      5.62676303	    -11.32523254	      0.78902755	      0.58156928	     -0.19699527	    106.02831842	     -8.02120570	      3.31168376	    106.35224565	      1.85619685	     36.60415715	     -2.04783245	     -7.49999987	    107.47834566	     -7.67753773	     11.43619846	    108.49843101	      1.89365485	     31.01609690	      0.44669208	     -7.49999987	    -31.58216691	      3.18916055	      3.59376775	     82.69545015	    -13.44173315	     13.82788136	    101.60568976	    103.52123653	     78.29212984	    -12.55317640	     17.83317972	    108.76959858	     96.68834448
      3.01666670	    -37.21247857	      5.64681363	    -11.30032023	      0.80095372	      0.60399548	     -0.19206660	    102.14182326	     -7.49700064	      2.85698258	    103.29391650	      1.80281894	     36.40101070	     -3.91234094	     -7.49999987	    103.60330638	     -7.01859066	     11.05765041	    105.86349646	      1.84766657	     31.25343442	     -1.51463194	     -7.49999987	    -29.99630575	      3.30696210	      1.95594731	     73.52903995	    -12.75961358	     11.59203215	     94.35448859	     98.07137201	     74.41381450	    -18.41222404	     17.95669542	    104.69038397	     92.56012195
      3.03333330	    -36.58402831	      5.59826009	    -11.70464422	      0.82912425	      0.62704496	     -0.18216544	     97.15585250	     -6.57078865	      2.30965075	     99.83903297	      1.74251985	     36.37621085	     -5.29849931	     -7.49999987	     98.39919318	     -7.00545195	     10.80001499	    102.53045679	      1.78949405	     32.12786412	     -2.66853117	     -7.49999987	    -29.41878857	      3.64625552	     -0.23468525	     66.14788448	    -13.00085688	     12.92908545	     88.52816792	     92.37906169	     66.79945013	    -26.18422529	     15.12640433	    102.80635757	     88.89898571
      3.05000000	    -35.23315563	      5.21480447	    -12.73358077	      0.87346253	      0.64601486	     -0.16296559	     90.16135554	     -4.95392777	      1.80156379	     96.39979569	      1.68249383	     36.52305966	     -6.82905004	     -7.49999987	     90.89601812	     -8.11688265	     10.86747988	     98.65727084	      1.72189421	     34.06593395	     -2.44333481	     -7.49999987	    -28.03723712	      3.17219802	      0.15094312	     53.32698790	    -16.72650490	     11.44093153	     86.01123838	     87.74467793	     53.61027301	    -29.28180135	     10.48108415	     97.84032708	     85.61596727
